<svg width="107" height="37" viewBox="0 0 107 37" fill="none" xmlns="http://www.w3.org/2000/svg">
<path fill-rule="evenodd" clip-rule="evenodd" d="M10.8879 0C10.5329 0.00265625 10.0875 0.00727879 9.48219 0.0146632C8.51608 0.0402163 7.78315 0.0987595 7.06486 0.226578C6.18964 0.382075 5.39726 0.638032 4.63967 1.02032C3.86978 1.40792 3.16474 1.9151 2.55304 2.52153C1.94202 3.12598 1.42927 3.82489 1.036 4.58968C0.649462 5.34167 0.390621 6.12829 0.232166 6.99927C0.102772 7.71221 0.0440674 8.43678 0.0184007 9.384L0.00959787 9.77861C0.00726453 9.91408 0.00546124 10.0543 0.00418851 10.2019L0 11.059L5.25966e-05 25.0783L0.00265107 25.6896C0.00466622 26.0789 0.00949162 26.4139 0.0184007 26.7357C0.0441204 27.6822 0.102825 28.4069 0.232113 29.1188C0.390673 29.9904 0.649568 30.7775 1.03595 31.5292C1.42938 32.2935 1.94192 32.9922 2.55346 33.5978C3.16575 34.2042 3.87084 34.7116 4.64058 35.0991C5.39726 35.481 6.18964 35.7369 7.06518 35.8924C7.71787 36.0086 8.38293 36.0675 9.2129 36.0963L9.83489 36.1115C10.1583 36.116 10.6363 36.1186 11.5907 36.1215L25.1238 36.1194C25.4826 36.1169 25.9162 36.1124 26.5783 36.1043C27.5445 36.0787 28.2774 36.0202 28.9957 35.8924C29.8709 35.7369 30.6633 35.481 31.4209 35.0987C32.19 34.7111 32.8954 34.2036 33.507 33.5978C34.119 32.9918 34.6316 32.2928 35.0241 31.5289C35.4109 30.7777 35.67 29.99 35.8279 29.1183C35.9455 28.4707 36.0052 27.8105 36.0343 26.9871L36.0422 26.735C36.0475 26.5423 36.0514 26.3446 36.054 26.1335L36.0603 24.4719L36.0593 10.7292L36.054 9.98548C36.0514 9.77431 36.0475 9.57642 36.0421 9.38331C36.0165 8.44066 35.9573 7.71317 35.8279 6.99975C35.6701 6.12866 35.411 5.34151 35.0237 4.58915C34.6317 3.82558 34.1189 3.12635 33.5066 2.52068C32.8964 1.91569 32.191 1.4084 31.4203 1.02005C30.6633 0.638032 29.8709 0.382076 28.9954 0.226526C28.3427 0.110394 27.6776 0.0514259 26.8477 0.0226853L26.1333 0.00632185C26.0765 0.00563122 26.0149 0.00499417 25.9473 0.00440979L10.8879 0Z" fill="#1A1A1A" fill-opacity="0.01"/>
<path fill-rule="evenodd" clip-rule="evenodd" d="M9.49539 1.07718L10.9471 1.06226L26.0518 1.0681C26.2809 1.07044 26.4232 1.07331 26.5657 1.07718C27.3145 1.09711 28.0699 1.14104 28.8105 1.27284C29.5623 1.4064 30.2614 1.6249 30.944 1.96937C31.6147 2.30735 32.2293 2.74903 32.7617 3.27688C33.2941 3.80345 33.74 4.41152 34.0813 5.07638C34.4297 5.75298 34.6498 6.44541 34.7846 7.18996C34.9177 7.92335 34.9621 8.6714 34.9822 9.41303C34.9917 9.75334 34.9958 10.0937 34.9976 10.4346L34.9996 11.0407L34.9999 24.472C34.9999 24.8762 34.9999 25.2804 34.9976 25.6852C34.9958 26.0255 34.9917 26.3659 34.9822 26.7062C34.9621 27.4473 34.9177 28.1959 34.7846 28.9287C34.6498 29.6733 34.4297 30.3663 34.0813 31.0429C33.74 31.7071 33.2941 32.3152 32.7617 32.8424C32.2293 33.3696 31.6147 33.8119 30.944 34.1499C30.2614 34.4943 29.5623 34.7129 28.8105 34.8464C28.0699 34.9782 27.3145 35.0221 26.5657 35.0421L24.3097 35.0597L10.0088 35.0512C9.77979 35.0488 9.63762 35.0459 9.49539 35.0421C8.74655 35.0221 7.99118 34.9782 7.25061 34.8464C6.49886 34.7129 5.79971 34.4943 5.1171 34.1499C4.44574 33.8119 3.83175 33.3696 3.29938 32.8424C2.76706 32.3152 2.32102 31.7071 1.97914 31.0429C1.63137 30.3663 1.41129 29.6733 1.27585 28.9287C1.14274 28.1959 1.09899 27.4473 1.07889 26.7062C1.0694 26.3659 1.06527 26.0255 1.06352 25.6852L1.06092 25.0784L1.06055 11.6473C1.06055 11.243 1.06055 10.8383 1.06352 10.4346C1.06527 10.0937 1.0694 9.75334 1.07889 9.41303C1.09899 8.6714 1.14274 7.92335 1.27585 7.18996C1.41129 6.44541 1.63137 5.75298 1.97914 5.07638C2.32102 4.41152 2.76706 3.80345 3.29938 3.27688C3.83175 2.74903 4.44574 2.30735 5.1171 1.96937C5.79971 1.6249 6.49886 1.4064 7.25061 1.27284C7.99118 1.14104 8.74655 1.09711 9.49539 1.07718Z" fill="#1A1A1A" fill-opacity="0.01"/>
<mask id="mask0_303_507" style="mask-type:alpha" maskUnits="userSpaceOnUse" x="1" y="1" width="34" height="35">
<path fill-rule="evenodd" clip-rule="evenodd" d="M9.49539 1.07718L10.9471 1.06226L26.0518 1.0681C26.2809 1.07044 26.4232 1.07331 26.5657 1.07718C27.3145 1.09711 28.0699 1.14104 28.8105 1.27284C29.5623 1.4064 30.2614 1.6249 30.944 1.96937C31.6147 2.30735 32.2293 2.74903 32.7617 3.27688C33.2941 3.80345 33.74 4.41152 34.0813 5.07638C34.4297 5.75298 34.6498 6.44541 34.7846 7.18996C34.9177 7.92335 34.9621 8.6714 34.9822 9.41303C34.9917 9.75334 34.9958 10.0937 34.9976 10.4346L34.9996 11.0407L34.9999 24.472C34.9999 24.8762 34.9999 25.2804 34.9976 25.6852C34.9958 26.0255 34.9917 26.3659 34.9822 26.7062C34.9621 27.4473 34.9177 28.1959 34.7846 28.9287C34.6498 29.6733 34.4297 30.3663 34.0813 31.0429C33.74 31.7071 33.2941 32.3152 32.7617 32.8424C32.2293 33.3696 31.6147 33.8119 30.944 34.1499C30.2614 34.4943 29.5623 34.7129 28.8105 34.8464C28.0699 34.9782 27.3145 35.0221 26.5657 35.0421L24.3097 35.0597L10.0088 35.0512C9.77979 35.0488 9.63762 35.0459 9.49539 35.0421C8.74655 35.0221 7.99118 34.9782 7.25061 34.8464C6.49886 34.7129 5.79971 34.4943 5.1171 34.1499C4.44574 33.8119 3.83175 33.3696 3.29938 32.8424C2.76706 32.3152 2.32102 31.7071 1.97914 31.0429C1.63137 30.3663 1.41129 29.6733 1.27585 28.9287C1.14274 28.1959 1.09899 27.4473 1.07889 26.7062C1.0694 26.3659 1.06527 26.0255 1.06352 25.6852L1.06092 25.0784L1.06055 11.6473C1.06055 11.243 1.06055 10.8383 1.06352 10.4346C1.06527 10.0937 1.0694 9.75334 1.07889 9.41303C1.09899 8.6714 1.14274 7.92335 1.27585 7.18996C1.41129 6.44541 1.63137 5.75298 1.97914 5.07638C2.32102 4.41152 2.76706 3.80345 3.29938 3.27688C3.83175 2.74903 4.44574 2.30735 5.1171 1.96937C5.79971 1.6249 6.49886 1.4064 7.25061 1.27284C7.99118 1.14104 8.74655 1.09711 9.49539 1.07718Z" fill="white"/>
</mask>
<g mask="url(#mask0_303_507)">
<path d="M34.9999 1.05957H1.06055V35.0596H34.9999V1.05957Z" fill="#19AA1E"/>
<path fill-rule="evenodd" clip-rule="evenodd" d="M1.06055 1.05957H34.9999V12.2158L1.06055 6.90332V1.05957Z" fill="#FFB919"/>
<path fill-rule="evenodd" clip-rule="evenodd" d="M1.06055 31.3408L34.9999 26.0283V35.0596H1.06055V31.3408Z" fill="#82D714"/>
<path fill-rule="evenodd" clip-rule="evenodd" d="M1.06055 6.2312L12.9074 8.08553C14.3821 7.15037 16.1365 6.63766 18.0302 6.63766C20.6531 6.63766 23.0089 7.62127 24.7242 9.34847C24.9407 9.56644 25.1448 9.79435 25.3363 10.031L34.9999 11.5436V12.8879L26.3176 11.5289C26.9626 12.7689 27.3105 14.1505 27.3105 15.5605C27.3105 17.3821 26.9038 19.1983 26.0631 21.0217L26.0375 21.077L25.6804 21.8435H24.8361C23.0926 21.8435 21.9361 22.366 21.18 23.2919C20.5863 24.0189 20.2429 24.9989 20.1274 26.0683L20.1239 26.1017L20.107 26.2726L20.0999 26.3469L20.0861 26.4923C20.0419 26.9697 20.0124 27.3746 19.9973 27.7045L34.9999 25.3561V26.7004L1.06055 32.0129V30.6686L16.0801 28.3177L16.0734 28.0159L16.0715 27.9307L16.0702 27.8871L16.0679 27.8198C16.0543 27.4538 16.0209 26.9847 15.9673 26.4163L15.957 26.3085L15.9386 26.1218C15.8308 25.0468 15.4926 24.0543 14.9005 23.3165C14.1523 22.3843 13.0064 21.8541 11.2769 21.8436L11.2244 21.8435H10.38L10.023 21.077C9.1649 19.235 8.74994 17.4005 8.74994 15.5605C8.74994 13.2467 9.68699 11.0092 11.3363 9.34847C11.3839 9.30055 11.432 9.25316 11.4806 9.20641L1.06055 7.57537V6.2312Z" fill="white"/>
<path fill-rule="evenodd" clip-rule="evenodd" d="M18.0307 7.96582C22.769 7.96582 25.9853 11.6194 25.9853 15.5606C25.9853 17.1428 25.6407 18.7893 24.8366 20.5154C20.1742 20.5154 19.0233 23.8603 18.8057 25.9649L18.7918 26.1052C18.718 26.8563 18.6754 27.459 18.6637 27.9134L17.4009 28.111L17.4006 28.0701C17.3958 27.5939 17.3509 26.9258 17.2658 26.0658L17.262 26.0283C17.0611 23.9282 15.9344 20.5154 11.2249 20.5154C10.4208 18.7893 10.0762 17.1428 10.0762 15.5606C10.0762 11.6194 13.2925 7.96582 18.0307 7.96582Z" fill="#0073FA"/>
</g>
<path fill-rule="evenodd" clip-rule="evenodd" d="M50.6976 9.29395C46.5613 9.29395 43.459 11.8174 43.4855 16.2002H47.3302C47.2772 14.4471 48.3908 12.7471 50.6976 12.7471C52.4476 12.7471 53.5613 13.9158 53.5613 15.4033C53.5613 16.9439 52.3416 17.7939 50.3795 18.7502C47.8075 19.9986 46.2696 20.583 43.4855 21.5127V26.5596H57.8037V23.1064H48.6825C50.0114 22.5514 51.3054 21.942 52.4742 21.3799C55.5764 19.8924 57.406 18.2189 57.406 15.2174C57.406 11.6049 54.7014 9.29395 50.6976 9.29395ZM63.637 13.0127H71.0613V9.55957H59.9249V26.5596H63.637V13.0127ZM76.8946 9.55957H73.1825V26.5596H76.8681L83.7886 15.6955V26.5596H87.5007V9.55957H83.7886L76.8946 20.4236V9.55957ZM106.141 20.1846H102.296C101.713 22.0705 99.9363 23.3721 97.8416 23.3721C94.7923 23.3721 92.8037 20.7424 92.8037 18.0596C92.8037 15.3768 94.7393 12.7471 97.9476 12.7471C100.069 12.7471 101.713 14.0486 102.296 15.9346H106.141C105.584 12.1361 102.588 9.29395 97.8416 9.29395C92.5916 9.29395 89.0916 12.9861 89.0916 18.0596C89.0916 23.133 92.5916 26.8252 97.8416 26.8252C102.588 26.8252 105.584 24.0361 106.141 20.1846Z" fill="#1A1A1A"/>
</svg>
