<svg width="113" height="103" viewBox="0 0 113 103" fill="none" xmlns="http://www.w3.org/2000/svg">
<path d="M111.301 43.1673C108.958 41.7631 104.744 33.5636 103.806 32.6276C102.868 31.6883 97.4804 29.5797 97.4804 29.5797L94.4358 19.976C88.5779 20.6789 85.0672 30.0476 84.8323 30.7505C84.8323 30.7505 84.2451 47.0304 58.2442 40.7064C39.6087 36.1732 28.4008 31.7885 18.9873 40.627C18.3985 39.6166 17.9962 38.589 17.7024 37.4804C17.1776 35.4804 17.0584 33.1855 17.0602 30.5706C17.0602 29.2892 17.0842 27.939 17.086 26.5229C17.0842 23.5576 16.9772 20.2885 16.193 16.8087C15.4161 13.3273 13.9343 9.65414 11.3318 5.99466C10.2093 4.41266 8.01597 4.03968 6.43242 5.16394C4.85064 6.2882 4.47743 8.48133 5.60169 10.0633C7.65512 12.9645 8.72729 15.6621 9.33864 18.351C9.94314 21.0362 10.0606 23.7354 10.059 26.5229C10.059 27.8524 10.033 29.2014 10.033 30.5706C10.0365 33.3616 10.1296 36.2645 10.8999 39.2487C11.5059 41.6179 12.6042 44.0114 14.3226 46.2463C7.04708 57.7045 11.0434 69.871 11.0434 69.871L3.51892 81.8422C3.38252 82.058 3.29093 82.2981 3.24436 82.5467L0.03225 100.215C-0.109221 100.992 0.222496 101.778 0.875115 102.22L9.91931 108.348C10.1126 108.48 10.3528 108.519 10.5772 108.456C10.8037 108.396 10.9884 108.237 11.0866 108.026L12.9242 104.092C13.0606 103.797 13.0054 103.448 12.7843 103.21L10.4166 100.683C9.93498 100.17 9.7604 99.4397 9.95727 98.7628L13.8946 85.2926C14.0224 84.8627 14.2883 84.488 14.6527 84.2289L19.9459 80.4641C20.6642 79.9494 21.6364 79.9737 22.3308 80.5195C23.0251 81.0651 23.2771 82.0028 22.9507 82.8232L20.6159 88.6912C20.3466 89.3646 20.4656 90.1313 20.9251 90.6908L34.2331 106.883H44.2128C44.6533 106.883 45.0109 106.525 45.0109 106.087V101.12C45.0109 100.679 44.6533 100.322 44.2128 100.322H41.0561C40.3185 100.322 39.6416 99.9129 39.2945 99.2618L33.8908 90.2022C33.5281 89.5167 33.5972 88.686 34.0636 88.0695L38.9076 81.6694C39.2841 81.1739 39.8714 80.8803 40.4949 80.8803H54.0012C54.6351 80.8803 55.2325 81.184 55.6073 81.6972C55.982 82.2101 56.0908 82.8698 55.9008 83.4758L51.5472 97.1947C51.4091 97.6266 51.4228 98.0945 51.587 98.5176L54.3795 105.712H63.047V103.838L61.6137 99.3327C61.4791 98.9113 61.4895 98.4571 61.6431 98.0411L67.4853 82.1843C67.7755 81.4001 68.5213 80.8803 69.3555 80.8803H75.317C75.8575 80.8803 76.3754 81.1015 76.752 81.4932L93.2634 104.306C93.2634 104.306 101.696 104.306 104.508 104.306C107.319 104.306 106.231 98.6973 103.572 98.4483C98.5338 97.9804 92.0941 83.9265 89.2828 79.0066C86.4713 74.0882 94.7262 58.8566 100.995 58.1605C107.319 57.4576 110.599 54.8793 111.536 51.365C113.41 49.258 113.644 44.5729 111.301 43.1673Z" fill="#FFFDF1"/>
</svg>
