<svg width="161" height="142" viewBox="0 0 161 142" fill="none" xmlns="http://www.w3.org/2000/svg">
<g clip-path="url(#clip0_303_814)">
<path d="M160.799 50.0656C160.492 49.2503 159.857 48.6009 159.049 48.275L145.47 42.7967C144.627 38.41 141.295 34.8967 137.007 33.7892L136.275 25.3514C136.168 24.1167 135.339 23.0628 134.164 22.6669C132.989 22.2711 131.692 22.6091 130.86 23.5272L127.375 27.3712L125.221 19.8328C124.85 18.5334 123.683 17.6211 122.333 17.574C120.98 17.5287 119.755 18.3561 119.294 19.6271L103.2 64.0261L43.6363 66.8068C43.6114 66.8078 43.5861 66.8089 43.5615 66.8103C31.3344 67.5445 19.7564 61.0036 14.0651 50.1449C13.2657 48.62 11.3816 48.0312 9.85741 48.8309C8.33249 49.6302 7.74441 51.514 8.54341 53.0385C13.6006 62.6878 22.533 69.4954 32.787 72.0192C32.423 72.3406 32.0569 72.6793 31.6898 73.0412C27.7779 76.9001 23.1086 83.9529 22.4301 95.9316L8.93512 101.859C8.14685 102.205 7.53696 102.862 7.24984 103.673L0.178692 123.667C-0.322456 125.084 0.259389 126.658 1.56231 127.408L4.95779 129.362C5.43643 129.638 5.97325 129.778 6.51319 129.778C6.87684 129.778 7.24188 129.714 7.59098 129.585C8.45821 129.266 9.13911 128.578 9.44942 127.707L14.471 113.61L26.5865 112.607L22.9049 117.608C22.3944 118.301 22.1936 119.175 22.3498 120.021L26.1958 140.876C26.4684 142.355 27.7578 143.428 29.2613 143.428H33.179C34.1034 143.428 34.9803 143.018 35.5725 142.308C36.1648 141.598 36.4114 140.662 36.2458 139.753L33.5655 125.031L59.5782 107.032C59.5033 107.094 59.6585 106.976 59.5782 107.032C62.042 104.962 63.8305 102.683 65.1098 100.339C78.2079 102.639 96.507 105.908 108.307 107.82C108.137 107.774 108.465 107.892 108.307 107.82L132.758 141.25C133.362 142.076 134.308 142.527 135.276 142.527C135.758 142.527 136.247 142.415 136.701 142.181L139.566 140.705C140.301 140.327 140.856 139.672 141.108 138.885C141.36 138.097 141.289 137.242 140.91 136.507L128.233 111.889L141.227 114.533L140.914 119.032C140.835 120.177 141.39 121.272 142.36 121.885L144.272 123.091C144.776 123.409 145.354 123.572 145.936 123.572C146.255 123.572 146.576 123.523 146.886 123.424C147.764 123.143 148.472 122.488 148.821 121.636L153.287 110.716C153.615 109.916 153.595 109.016 153.233 108.231C152.871 107.446 152.199 106.847 151.378 106.576L127.907 98.4993C127.929 98.3958 134.908 66.182 134.908 66.182C136.211 66.3992 137.527 66.5134 138.852 66.5134C147.981 66.5134 156.34 61.1691 160.668 52.5661C161.059 51.7876 161.107 50.8809 160.799 50.0656Z" fill="#FFFDF1"/>
</g>
<defs>
<clipPath id="clip0_303_814">
<rect width="161" height="161" fill="white"/>
</clipPath>
</defs>
</svg>
