<svg width="57" height="57" viewBox="0 0 57 57" fill="none" xmlns="http://www.w3.org/2000/svg">
<path d="M38.012 15.6171L37.9658 15.6633C37.0366 16.5925 35.9822 17.3222 34.8579 17.8538L34.9309 17.8166C33.7619 18.3631 32.5348 18.5865 31.3241 18.5046L31.3137 18.5031C30.1223 18.4406 28.9444 17.9506 28.03 17.0363C28.0062 17.0124 27.9824 16.9886 27.9585 16.9648L27.9615 16.9678C26.7151 15.7035 26.0896 14.0594 26.0837 12.4124C26.0092 10.6284 26.3338 8.84432 27.0546 7.19133L27.0918 7.11539C27.7039 5.64855 28.654 4.18915 29.9004 2.90995L29.9064 2.904C29.9198 2.89059 29.9362 2.87421 29.9525 2.85783C30.8818 1.92859 31.9361 1.19889 33.0605 0.667254L32.9875 0.704483C34.1565 0.157955 35.3836 -0.065421 36.5943 0.0164836L36.6047 0.017973C37.796 0.0805184 38.977 0.570457 39.8913 1.48481C39.9181 1.51162 39.9449 1.53842 39.9702 1.56672L39.9658 1.56225C41.2137 2.82507 41.8406 4.47061 41.8436 6.11764C41.9091 7.88976 41.583 9.66634 40.8682 11.3104L40.831 11.3863C40.2189 12.8591 39.2629 14.3245 38.009 15.6052L38.0045 15.6096L38.012 15.6171ZM18.812 18.8977C18.7763 18.9365 18.7331 18.9796 18.6884 19.0243C17.5239 20.1889 16.0794 20.9007 14.5708 21.1613L14.6006 21.1553C13.18 21.4055 11.6804 20.9871 10.5962 19.9029C10.5471 19.8538 10.4994 19.8032 10.4518 19.7525L10.4592 19.76C9.20535 18.4733 8.5382 16.8323 8.45778 15.1674L8.45778 15.1763C8.19718 11.6723 9.35725 8.10271 11.938 5.39092L11.9499 5.37901C11.9842 5.34178 12.0273 5.29859 12.0705 5.2554C13.2395 4.0864 14.69 3.36862 16.203 3.10354L16.1732 3.1095C17.5983 2.8489 19.1039 3.26438 20.1925 4.35296C20.2401 4.40062 20.2878 4.45125 20.334 4.50039L20.3265 4.49295C21.5804 5.77959 22.2476 7.42067 22.328 9.08556L22.328 9.07663C22.5826 12.5926 21.4121 16.1696 18.8195 18.8903L18.809 18.9007L18.812 18.8977ZM28.6153 27.4441C30.7507 29.8387 31.9659 32.7188 32.2891 35.6778L32.2846 35.6405C32.8892 39.2622 32.8296 42.863 32.1282 46.3611L32.0999 46.4847C31.6845 49.3544 30.4321 52.1764 28.3502 54.5203L28.3219 54.5516C28.2847 54.5918 28.24 54.6395 28.1953 54.6841C27.5937 55.2858 26.8774 55.7072 26.1179 55.9455L26.1462 55.935C25.4269 56.142 24.6779 56.1167 23.9914 55.8621L23.9705 55.8531C23.3302 55.6268 22.663 55.2843 22.045 54.8479L22.0048 54.8167C21.4225 54.3982 20.8016 53.8695 20.2148 53.2828C20.1776 53.2456 20.1404 53.2084 20.1031 53.1711L20.1091 53.1771C18.6199 51.4675 17.5105 49.6075 16.7406 47.6463L16.7927 47.7669C16.1002 45.9724 15.031 44.1557 13.6371 42.5235L13.594 42.4744C11.8293 40.9539 9.93802 39.8013 7.94402 38.9659L8.07953 39.0299C6.14658 38.2198 4.18534 37.0002 2.42215 35.4395L2.37897 35.3993C-0.468337 32.556 -0.759717 30.002 1.50482 27.7375C3.2278 26.1575 5.22925 25.1061 7.33346 24.5655L7.26346 24.5849C9.89335 23.7927 12.4443 23.398 15.0012 23.3519H14.9893C17.5596 23.2983 20.1225 23.6035 22.6094 24.2737L22.7509 24.3169C24.8342 24.7919 26.8759 25.8299 28.5944 27.4173L28.6123 27.4352L28.6153 27.4441ZM39.0872 28.0964C39.0663 28.0755 39.0425 28.0517 39.0186 28.0279C38.1043 27.1135 37.6158 25.9341 37.5518 24.7383V24.7442C37.4699 23.5216 37.6903 22.2946 38.216 21.1732L38.2398 21.1255C38.7327 20.0727 39.4624 19.0184 40.3917 18.0891C40.408 18.0727 40.4244 18.0564 40.4408 18.04L40.4378 18.043C41.7245 16.7831 43.1883 15.8286 44.7505 15.1748L44.6611 15.2165C46.3841 14.4645 48.1577 14.1383 49.9209 14.2039L49.9313 14.2054C51.5769 14.2098 53.2224 14.8368 54.4837 16.0832L54.4852 16.0847L54.5537 16.1532C55.4681 17.0675 55.9565 18.247 56.0206 19.4428L56.0206 19.4368C56.1025 20.6594 55.8821 21.8865 55.3564 23.0079L55.3326 23.0555C54.8397 24.1173 54.1055 25.1791 53.1703 26.1143L53.1405 26.1441L53.142 26.1426C51.8583 27.3965 50.396 28.3466 48.8413 28.9988L48.9306 28.9571C47.2017 29.7151 45.4176 30.0398 43.6455 29.9653L43.6336 29.9653C41.9896 29.9564 40.3455 29.3309 39.0842 28.0845L39.0827 28.083L39.0872 28.0964ZM51.5575 35.7299C51.6007 35.7701 51.6498 35.8163 51.6975 35.8639C52.7861 36.9525 53.2016 38.4581 52.9439 39.8653L52.941 39.8832C52.6803 41.3679 51.9641 42.8169 50.7936 43.9874C50.7504 44.0306 50.7087 44.0723 50.664 44.114L50.67 44.108C47.9463 46.7007 44.3767 47.8607 40.8965 47.6001L40.8742 47.5986C39.2182 47.5182 37.5771 46.8511 36.2935 45.6002L36.2905 45.5972C36.2473 45.557 36.1967 45.5093 36.1475 45.4602C35.0634 44.3761 34.6435 42.8779 34.8921 41.4736L34.8951 41.4558C35.1498 39.977 35.8631 38.531 37.0261 37.368C37.0693 37.3248 37.114 37.2801 37.1587 37.2384L37.1527 37.2444C39.8839 34.6413 43.4609 33.4708 46.956 33.7225L46.9783 33.724C48.6313 33.8074 50.2694 34.4715 51.5501 35.7195L51.553 35.7225L51.5575 35.7299Z" fill="white" fill-opacity="0.17"/>
</svg>
