<svg width="34" height="34" viewBox="0 0 34 34" fill="none" xmlns="http://www.w3.org/2000/svg">
<path d="M13.4618 6.03106C13.0315 4.95536 11.9897 4.25 10.8311 4.25H6.93421C5.45176 4.25 4.25 5.45147 4.25 6.93392C4.25 19.5347 14.4653 29.75 27.0661 29.75C28.5485 29.75 29.75 28.5481 29.75 27.0657L29.7507 23.1681C29.7507 22.0095 29.0455 20.9679 27.9698 20.5376L24.2348 19.0442C23.2686 18.6577 22.1684 18.8316 21.3689 19.4978L20.405 20.3018C19.2792 21.2399 17.6228 21.1653 16.5866 20.1291L13.8723 17.4123C12.8361 16.3761 12.7595 14.7211 13.6977 13.5953L14.5015 12.6314C15.1677 11.8319 15.3432 10.7315 14.9567 9.76521L13.4618 6.03106Z" stroke="#EB5E28" stroke-width="2" stroke-linecap="round" stroke-linejoin="round"/>
</svg>
