<svg width="34" height="34" viewBox="0 0 34 34" fill="none" xmlns="http://www.w3.org/2000/svg">
<path d="M30.5699 9.71117C30.7683 9.05242 30.5699 8.56934 29.6321 8.56934H26.5253C25.7348 8.56934 25.3736 8.98725 25.1753 9.44625C25.1753 9.44625 23.5957 13.2982 21.3573 15.7958C20.6348 16.5225 20.3048 16.752 19.9109 16.752C19.714 16.752 19.4278 16.5225 19.4278 15.8638V9.71117C19.4278 8.92067 19.1998 8.56934 18.541 8.56934H13.6592C13.1662 8.56934 12.8687 8.93484 12.8687 9.28334C12.8687 10.0313 13.9878 10.2042 14.1026 12.3122V16.8852C14.1026 17.8868 13.9227 18.0695 13.526 18.0695C12.4734 18.0695 9.91209 14.2034 8.39201 9.77775C8.09592 8.91784 7.79701 8.57075 7.00367 8.57075H3.89834C3.01009 8.57075 2.83301 8.98867 2.83301 9.44767C2.83301 10.2722 3.88559 14.3522 7.73609 19.7483C10.3031 23.433 13.917 25.4305 17.2093 25.4305C19.1828 25.4305 19.4264 24.9871 19.4264 24.2221V21.4369C19.4264 20.5501 19.6148 20.3716 20.2396 20.3716C20.6986 20.3716 21.4891 20.6039 23.3322 22.379C25.4373 24.4842 25.7858 25.4291 26.9688 25.4291H30.0741C30.9609 25.4291 31.4043 24.9857 31.1493 24.1102C30.8703 23.2389 29.8644 21.971 28.5299 20.4708C27.8046 19.6151 26.7208 18.6943 26.3908 18.2338C25.9303 17.6403 26.0635 17.3782 26.3908 16.8512C26.3922 16.8526 30.1761 11.5231 30.5699 9.71117Z" fill="#FFFDF1"/>
</svg>
