<svg width="44" height="44" viewBox="0 0 44 44" fill="none" xmlns="http://www.w3.org/2000/svg">
<rect width="44" height="44" rx="22" fill="#EB5E28"/>
<path d="M35.9938 15.784C36.1987 15.1394 35.9938 14.6667 35.0247 14.6667H31.8145C30.9977 14.6667 30.6244 15.0756 30.4194 15.5248C30.4194 15.5248 28.7872 19.2942 26.4743 21.7383C25.7278 22.4495 25.3867 22.674 24.9798 22.674C24.7763 22.674 24.4806 22.4495 24.4806 21.8048V15.784C24.4806 15.0105 24.2449 14.6667 23.5642 14.6667H18.5198C18.0104 14.6667 17.7029 15.0243 17.7029 15.3654C17.7029 16.0973 18.8594 16.2665 18.978 18.3293V22.8044C18.978 23.7845 18.792 23.9633 18.3822 23.9633C17.2945 23.9633 14.6479 20.1801 13.0772 15.8492C12.7712 15.0077 12.4623 14.668 11.6426 14.668H8.43383C7.51599 14.668 7.33301 15.077 7.33301 15.5262C7.33301 16.333 8.42065 20.3256 12.3994 25.6061C15.0519 29.2119 18.7862 31.1667 22.1882 31.1667C24.2273 31.1667 24.4791 30.7327 24.4791 29.9841V27.2586C24.4791 26.3908 24.6738 26.2161 25.3194 26.2161C25.7937 26.2161 26.6105 26.4435 28.515 28.1805C30.6902 30.2406 31.0504 31.1653 32.2727 31.1653H35.4814C36.3978 31.1653 36.856 30.7313 36.5925 29.8746C36.3041 29.022 35.2648 27.7813 33.8858 26.3131C33.1363 25.4758 32.0165 24.5747 31.6754 24.1241C31.1997 23.5433 31.3373 23.2868 31.6754 22.7711C31.6769 22.7725 35.5868 17.5571 35.9938 15.784Z" fill="#FFFDF1"/>
</svg>
