<svg width="34" height="34" viewBox="0 0 34 34" fill="none" xmlns="http://www.w3.org/2000/svg">
<path d="M17 2.125C9.95817 2.125 4.25 7.83317 4.25 14.875C4.25 18.3946 5.67609 21.5815 7.98256 23.8886C10.2897 26.197 15.725 29.5375 16.0438 33.0438C16.0915 33.5695 16.4721 34 17 34C17.5279 34 17.9085 33.5695 17.9562 33.0438C18.275 29.5375 23.7103 26.197 26.0174 23.8886C28.3239 21.5815 29.75 18.3946 29.75 14.875C29.75 7.83317 24.0418 2.125 17 2.125Z" fill="#FF4433"/>
<path d="M16.9996 19.3381C19.4642 19.3381 21.4621 17.3401 21.4621 14.8756C21.4621 12.411 19.4642 10.4131 16.9996 10.4131C14.5351 10.4131 12.5371 12.411 12.5371 14.8756C12.5371 17.3401 14.5351 19.3381 16.9996 19.3381Z" fill="white"/>
</svg>
